# xmcd CD database file
#
# Track frame offsets:
#	150
#	15662
#	36785
#	59425
#	72605
#
# Disc length: 1139 seconds
#
# Revision: 0
# Processed by: cddbd v1.5.1PL0 Copyright (c) Steve Scherf et al.
# Submitted via: CDex 1.51
#
DISCID=42047105
DTITLE=Sunk Loto - Make You Feel (Single)
DYEAR=1900
DGENRE=New Age
TTITLE0=Make You Feel
TTITLE1=Make You Feel (Ceramic Splinter Mix)
TTITLE2=Make You Feel (Paul Mac's Trance 'n' Rock Mix)
TTITLE3=Human Ashtray
TTITLE4=Blunt (The Endorphin Mix)
EXTD=
EXTT0=
EXTT1=
EXTT2=
EXTT3=
EXTT4=
PLAYORDER=
